<?xml version="1.0" encoding="UTF-8"?>
<svg width="23px" height="22px" viewBox="0 0 23 22" version="1.1" xmlns="http://www.w3.org/2000/svg" xmlns:xlink="http://www.w3.org/1999/xlink">
    <!-- Generator: Sketch 54.1 (76490) - https://sketchapp.com -->
    <title>Path</title>
    <desc>Created with Sketch.</desc>
    <g id="Page-1" stroke="none" stroke-width="1" fill="none" fill-rule="evenodd" stroke-linecap="round" stroke-linejoin="round">
        <g id="Day-1311-Social-Platform-UI-Components-Design" transform="translate(-601.000000, -781.000000)" stroke="#1A1B38" stroke-width="1.86764709">
            <g id="Group-11" transform="translate(522.000000, 614.000000)">
                <g id="Group-9" transform="translate(80.000000, 168.000000)">
                    <path d="M4.94117647,8.74734777 L4.94117647,18.7443167 C4.94117647,19.4344633 4.38811646,19.9939378 3.70588235,19.9939378 L1.23529412,19.9939378 C0.553060015,19.9939378 0,19.4344633 0,18.7443167 L0,9.99696888 C0,9.3068222 0.553060015,8.74734777 1.23529412,8.74734777 L4.94117647,8.74734777 C7.67011288,8.74734777 9.88235294,6.50945006 9.88235294,3.74886333 L9.88235294,2.49924222 C9.88235294,1.11894886 10.988473,0 12.3529412,0 C13.7174094,0 14.8235294,1.11894886 14.8235294,2.49924222 L14.8235294,8.74734777 L18.5294118,8.74734777 C19.89388,8.74734777 21,9.86629663 21,11.24659 L19.7647059,17.4946955 C19.3997521,19.0695419 18.3925095,20.0884665 17.2941176,19.9939378 L8.64705882,19.9939378 C6.60035652,19.9939378 4.94117647,18.3155145 4.94117647,16.2450744" id="Path"></path>
                </g>
            </g>
        </g>
    </g>
</svg>